<svg width="44" height="44" viewBox="0 0 44 44" fill="none" xmlns="http://www.w3.org/2000/svg">
<path d="M11.5769 6.6283C14.256 8.32007 17.8027 6.85098 18.5008 3.76031C19.3432 0.031068 24.6568 0.0310679 25.4992 3.76031C26.1973 6.85098 29.744 8.32007 32.4231 6.6283C35.6557 4.58698 39.413 8.34426 37.3717 11.5769C35.6799 14.256 37.149 17.8027 40.2397 18.5008C43.9689 19.3432 43.9689 24.6568 40.2397 25.4992C37.149 26.1973 35.6799 29.744 37.3717 32.4231C39.413 35.6557 35.6557 39.413 32.4231 37.3717C29.744 35.6799 26.1973 37.149 25.4992 40.2397C24.6568 43.9689 19.3432 43.9689 18.5008 40.2397C17.8027 37.149 14.256 35.6799 11.5769 37.3717C8.34426 39.413 4.58698 35.6557 6.6283 32.4231C8.32007 29.744 6.85098 26.1973 3.76031 25.4992C0.031068 24.6568 0.0310679 19.3432 3.76031 18.5008C6.85098 17.8027 8.32007 14.256 6.6283 11.5769C4.58698 8.34426 8.34426 4.58698 11.5769 6.6283Z" fill="#D9FF0F" stroke="#4D4D4D"/>
</svg>
