<svg width="29" height="29" viewBox="0 0 29 29" fill="none" xmlns="http://www.w3.org/2000/svg">
<path d="M21.1115 7.39684L21.1908 7.63393L21.4281 7.71272C25.6878 9.12726 28.3 11.6845 28.3 14.4191C28.3 15.7771 27.6528 17.0922 26.4526 18.2571C25.2508 19.4235 23.5146 20.4165 21.4109 21.1058L21.1714 21.1842L21.092 21.4235C19.6783 25.6864 17.1227 28.3 14.3905 28.3C11.6582 28.3 9.10264 25.6864 7.6889 21.4235L7.60994 21.1854L7.37189 21.1064C3.11223 19.6918 0.5 17.1346 0.5 14.4C0.5 11.6654 3.11223 9.10816 7.37189 7.69362L7.60994 7.61457L7.6889 7.37649C9.10264 3.11358 11.6582 0.5 14.3905 0.5C15.7581 0.5 17.0723 1.14396 18.2381 2.34205C19.406 3.54239 20.4033 5.2802 21.1115 7.39684Z" fill="#D9FF0F" stroke="#4D4D4D"/>
</svg>
